<?xml version="1.0" encoding="utf-8"?>
<!-- Generator: Adobe Illustrator 26.0.3, SVG Export Plug-In . SVG Version: 6.00 Build 0)  -->
<svg version="1.0" id="katman_1" xmlns="http://www.w3.org/2000/svg" xmlns:xlink="http://www.w3.org/1999/xlink" x="0px" y="0px"
	 viewBox="0 0 402.5 270.5" style="enable-background:new 0 0 402.5 270.5;" xml:space="preserve">
<style type="text/css">
	.st0{fill:#020203;}
</style>
<path class="st0" d="M284.4,94.4c-0.2,0.3-0.4,0.4-0.5,0.6c-9.9,12.8-16.5,27.1-18.9,43.2c-0.6,4.4-1,8.8-0.7,13.2
	c0.7,11.3,11.5,20,22.7,18.4c10.1-1.5,17.5-9.8,17.6-20c0-5.4-0.5-10.8-1.6-16.1c-2.6-12.6-7.8-24.1-15.1-34.6
	C286.7,97.5,285.6,96,284.4,94.4 M313.9,151.5c-0.2,1.4-0.4,2.8-0.6,4.1c-2.4,11.9-11.8,21-23.7,23.1c-0.4,0.1-0.5,0.3-0.5,0.7
	c0,3.3,0,6.6,0,9.9v0.8h-9.3v-0.7c0-3.3,0-6.6,0-9.9c0-0.5-0.1-0.7-0.6-0.8c-12.3-2.1-22.2-12.4-23.9-24.8c-0.5-3.8-0.3-7.6,0-11.3
	c0.9-11.9,4.1-23.2,9.2-33.9c4.2-8.7,9.4-16.7,16-23.8c1.1-1.2,2.4-2.4,3.6-3.6c0.1-0.1,0.3-0.3,0.4-0.5h0.1
	c0.1,0.2,0.3,0.3,0.4,0.5c1.2,1.2,2.5,2.4,3.6,3.7c8,8.8,14.1,18.8,18.5,29.7c3.6,8.8,5.8,17.9,6.5,27.4c0.1,1.5,0.2,2.9,0.3,4.4
	V151.5z"/>
<path class="st0" d="M87.1,141.9h10.6v47.6c-0.2,0-0.3,0-0.5,0h-9.7c-0.1,0-0.3,0-0.4,0V141.9z"/>
<polygon class="st0" points="162.1,136.6 151.6,136.6 151.6,116.1 131.2,116.1 131.2,136.6 120.7,136.6 120.7,89.1 131.1,89.1 
	131.1,106.7 151.5,106.7 151.5,89.1 162.1,89.1 "/>
<path class="st0" d="M203.9,120.1c0-4.4-3.7-8.1-8.1-8.1c-4.4,0-8.1,3.7-8.1,8.1s3.7,8,8.1,8S203.9,124.5,203.9,120.1 M177.7,148.1
	c2-2.9,3.8-5.7,5.6-8.3c1.7,1,3.2,2,4.9,2.8c2.9,1.4,6,1.6,9.1,0.9c3.3-0.7,5.3-3,5.7-6.3c0.2-1.5,0-2.9,0-4.5
	c-0.1,0-0.1,0.1-0.2,0.1c-1.9,2.5-4.6,3.6-7.6,4c-8.9,1-16.5-5.1-17.4-14c-0.6-5.1,0.4-9.8,3.4-14c5.9-8.1,16.1-6.6,20.9-2.6
	c0.6,0.5,1.3,1.1,1.8,1.5v-3.9h9.4v0.7c0,9.7,0,19.4,0,29c0,2.4-0.2,4.8-0.8,7.2c-1.6,5.9-5.4,9.7-11.4,11.1
	c-3.8,0.9-7.5,0.9-11.4,0.5c-2.6-0.3-5.3-0.8-7.7-1.9C180.5,149.8,179.2,149,177.7,148.1"/>
<path class="st0" d="M233.6,128.1c4.4,0,8.1-3.6,8.1-8c0-4.4-3.7-8.1-8.1-8.1c-4.4,0-8.1,3.7-8.1,8.1
	C225.6,124.5,229.2,128.1,233.6,128.1 M251.1,104v0.7v28.9c0,2.7-0.2,5.4-1.1,8c-1.8,5.8-5.7,9.2-11.6,10.5
	c-5.7,1.2-11.3,0.8-16.9-0.9c-2.2-0.6-4.1-1.8-5.9-3.2c1.9-2.8,3.7-5.5,5.6-8.3c0.2,0.2,0.4,0.3,0.6,0.4c2.3,1.7,4.8,3.2,7.7,3.6
	c1.9,0.3,3.8,0.3,5.7-0.2c3.2-0.8,5.3-3.1,5.7-6.4c0.1-1.4,0-2.9,0-4.4c-0.1,0.1-0.2,0.1-0.2,0.2c-1.9,2.5-4.6,3.6-7.6,4
	c-8.7,1-16.1-4.7-17.3-13.4c-0.8-5.4,0.1-10.4,3.4-14.7c6-7.9,16.2-6.5,20.9-2.3c0.6,0.5,1.2,1,1.7,1.3V104L251.1,104L251.1,104z"/>
<path class="st0" d="M157.9,164.9c-2.5,0-4.4,0.7-5.8,2.1c-2.6,2.6-3.1,7.9-1,11.1c2.2,3.4,7.8,4.4,11.4,2.1
	c2.3-1.5,3.3-3.8,3.5-6.4C166.3,168.5,163.1,164.9,157.9,164.9 M175.2,189.4H166v-4.3c-0.2,0.2-0.3,0.2-0.4,0.3
	c-3.1,3.7-7.1,5.3-11.9,4.7c-4.6-0.5-8.4-2.6-11.1-6.4c-1.8-2.5-2.6-5.4-2.9-8.4c-0.3-4.1,0.4-8.1,2.4-11.7
	c3.1-5.6,8.7-8.3,15.1-7.4c2.2,0.3,4.3,0.9,6.1,2.4c0.6,0.5,1.1,1.1,1.8,1.7v-21.5h10.1V189.4z"/>
<path class="st0" d="M203.8,169.4c0.2-2.4-1.3-4.8-3.7-5.7c-2.7-1.1-6.2-0.2-8.1,2c-0.9,1.1-1.4,2.3-1.5,3.7H203.8z M214,176.3
	h-23.5c0.6,2.7,2,4.8,4.6,5.8c4.2,1.5,7.6,0.1,10.2-3.4c2.4,1.7,4.7,3.4,7.1,5.2c-1.4,1.8-3,3.1-4.9,4.2c-7.3,4.1-16.3,2.5-21.5-2.1
	c-4-3.5-5.8-8-5.6-13.3c0.2-8.3,5.8-14.7,14.1-16.2c2.7-0.5,5.4-0.6,8,0c4.5,1.1,7.7,3.8,9.7,8C214,168.2,214.1,172.2,214,176.3"/>
<path class="st0" d="M135.6,189.5h-10.1v-0.8c0-5.7,0-11.4-0.1-17.1c0-0.8-0.1-1.6-0.3-2.4c-0.7-3.2-2.7-4.5-5.9-4.1
	c-2.7,0.3-4.4,2-4.8,4.8c-0.2,1.2-0.3,2.5-0.3,3.8c0,5,0,10.1,0,15.1v0.8h-10V157h9.7v4.4c0.1-0.1,0.2-0.1,0.3-0.2
	c2-3.3,5.1-4.8,8.9-5c2.4-0.1,4.8,0.1,7,1.3c2.9,1.5,4.4,4,5,7.1c0.4,2.2,0.6,4.5,0.7,6.7c0.1,5.9,0,11.8,0,17.7
	C135.7,189.1,135.6,189.3,135.6,189.5"/>
<path class="st0" d="M252.7,189.5H252c-3.5,0-7.1,0-10.6,0c-0.5,0-0.7-0.1-1-0.5c-2.1-3.2-4.2-6.5-6.4-9.7c-0.1-0.2-0.2-0.4-0.4-0.6
	c-0.1,0.2-0.3,0.3-0.4,0.4c-2.3,3.3-4.6,6.5-6.9,9.8c-0.3,0.4-0.6,0.6-1.2,0.6c-3.4,0-6.8,0-10.3,0H214c0.9-1.3,1.8-2.4,2.6-3.6
	c3.3-4.4,6.6-8.9,9.9-13.3c0.3-0.4,0.4-0.7,0-1.2c-3.4-4.6-6.7-9.3-10-13.9c-0.1-0.2-0.3-0.4-0.5-0.7h0.7c3.5,0,7.1,0,10.6,0
	c0.5,0,0.7,0.2,1,0.5c1.7,2.6,3.3,5.1,5,7.7c0.1,0.2,0.3,0.4,0.4,0.6c0.7-1.1,1.4-2.1,2-3.2c1.1-1.7,2.2-3.5,3.3-5.2
	c0.1-0.2,0.5-0.4,0.7-0.4c3.4,0,6.9,0,10.3,0c0.1,0,0.2,0,0.4,0c-0.1,0.2-0.3,0.4-0.4,0.6c-3.3,4.7-6.6,9.4-9.9,14.1
	c-0.3,0.4-0.3,0.6,0,0.9c4,5.5,7.9,11,11.9,16.5C252.4,189.1,252.5,189.2,252.7,189.5"/>
<rect x="166.1" y="104" class="st0" width="10.1" height="32.6"/>
<path class="st0" d="M171,99.5c-3.3-0.1-5.8-2.7-5.8-6c0.1-3.2,2.8-5.8,6-5.7c3.3,0.1,5.8,2.7,5.7,6.1C176.9,97,174.2,99.6,171,99.5
	"/>
<path class="st0" d="M279.6,124.7c-2.2,0-4.3,0-6.5,0c-1.4,0-2.3-1.4-1.8-2.6c0.3-0.7,0.9-1.2,1.7-1.2c4.3,0,8.7,0,13,0
	c1.1,0,1.9,0.9,1.9,1.9s-0.8,1.9-1.9,1.9C283.9,124.7,281.8,124.7,279.6,124.7"/>
<path class="st0" d="M279.6,161.1c-2.1,0-4.3,0-6.4,0c-1.4,0-2.3-1.3-1.8-2.6c0.3-0.8,0.9-1.2,1.8-1.2c4.3,0,8.6,0,12.9,0
	c1.1,0,2,0.9,1.9,1.9c0,1-0.8,1.8-1.9,1.9C283.9,161.1,281.8,161.1,279.6,161.1"/>
<path class="st0" d="M279.6,142.9c-2.2,0-4.3,0-6.5,0c-1.4,0-2.3-1.3-1.8-2.5c0.3-0.8,0.9-1.2,1.7-1.2c4.3,0,8.7,0,13,0
	c1.1,0,1.9,0.9,1.9,1.9s-0.8,1.9-1.9,1.9C283.9,142.9,281.8,142.9,279.6,142.9"/>
<path class="st0" d="M282.5,115.6c-1.1,0-2.3,0-3.4,0c-1.2,0-2-0.8-2-1.9s0.8-1.9,2-1.9c2.3,0,4.6,0,6.8,0c1.2,0,2,0.8,2,1.9
	s-0.8,1.9-2,1.9C284.8,115.6,283.7,115.6,282.5,115.6"/>
<path class="st0" d="M282.6,133.8c-1.1,0-2.2,0-3.3,0c-1.2,0-2.1-0.8-2.1-1.9s0.8-1.9,2.1-1.9c2.2,0,4.5,0,6.7,0
	c1.2,0,2.1,0.8,2.1,1.9c0,1.1-0.8,1.9-2.1,1.9h-0.1H282.6"/>
<path class="st0" d="M282.5,148.2c1.1,0,2.3,0,3.4,0c1.2,0,2,0.8,2,1.9c0,1.1-0.8,1.9-2,1.9c-2.3,0-4.6,0-6.8,0c-1.2,0-2-0.8-2-1.9
	c0-1.1,0.8-1.9,2-1.9C280.3,148.2,281.4,148.2,282.5,148.2"/>
</svg>
