<?xml version="1.0" encoding="utf-8"?>
<!-- Generator: Adobe Illustrator 26.0.3, SVG Export Plug-In . SVG Version: 6.00 Build 0)  -->
<svg version="1.0" id="layer" xmlns="http://www.w3.org/2000/svg" xmlns:xlink="http://www.w3.org/1999/xlink" x="0px" y="0px"
	 viewBox="0 0 760 500" style="enable-background:new 0 0 760 500;" xml:space="preserve">
<style type="text/css">
	.st0{fill:#878787;}
	.st1{fill:none;stroke:#878787;stroke-width:3.4481;stroke-miterlimit:3.864;}
	.st2{fill:#F6A000;}
</style>
<g>
	<path class="st0" d="M143.2,242.5c-0.1,0.1-0.3,0.3-0.6,0.4c-0.3,0.2-0.6,0.4-1.1,0.5c-0.5,0.2-1,0.3-1.7,0.5
		c-0.6,0.1-1.4,0.2-2.2,0.2c-1.6,0-3-0.3-4.2-0.8s-2.1-1.2-2.9-2.2c-0.8-0.9-1.3-2-1.7-3.3c-0.4-1.3-0.5-2.6-0.5-4.2
		c0-1.5,0.2-2.9,0.6-4.2c0.4-1.3,1-2.4,1.7-3.3c0.8-0.9,1.7-1.7,2.9-2.2c1.2-0.5,2.5-0.8,4.1-0.8c0.8,0,1.5,0.1,2.1,0.2
		c0.6,0.1,1.2,0.3,1.6,0.5c0.5,0.2,0.9,0.4,1.2,0.6c0.3,0.2,0.5,0.4,0.7,0.5c0.2,0.2,0.3,0.3,0.5,0.6c0.1,0.2,0.2,0.5,0.2,0.7
		c0,0.4-0.1,0.8-0.4,1.2c-0.3,0.4-0.6,0.8-1,1.1c-0.2-0.2-0.5-0.5-0.8-0.7c-0.3-0.3-0.6-0.5-1-0.7c-0.4-0.2-0.8-0.3-1.3-0.5
		c-0.5-0.1-1-0.2-1.6-0.2c-1,0-1.9,0.2-2.6,0.6c-0.7,0.4-1.2,0.9-1.7,1.6c-0.4,0.7-0.7,1.4-0.9,2.3c-0.2,0.8-0.3,1.7-0.3,2.6
		s0.1,1.8,0.3,2.7s0.5,1.6,0.9,2.3c0.4,0.7,1,1.2,1.7,1.6c0.7,0.4,1.6,0.6,2.6,0.6c0.6,0,1.1-0.1,1.5-0.2c0.5-0.1,0.9-0.3,1.2-0.5
		c0.4-0.2,0.7-0.4,0.9-0.6c0.3-0.2,0.5-0.4,0.7-0.6c0.1,0.1,0.3,0.3,0.4,0.5c0.2,0.2,0.3,0.4,0.5,0.6c0.1,0.2,0.3,0.4,0.4,0.7
		c0.1,0.2,0.1,0.4,0.1,0.6c0,0.3-0.1,0.5-0.1,0.7C143.6,242.1,143.5,242.3,143.2,242.5"/>
	<path class="st0" d="M167.6,233.6c0,1.4-0.2,2.8-0.5,4.1c-0.3,1.3-0.9,2.4-1.6,3.4s-1.7,1.7-2.8,2.3c-1.2,0.6-2.5,0.8-4.2,0.8
		c-1.6,0-3-0.3-4.1-0.8c-1.1-0.6-2.1-1.3-2.8-2.3c-0.7-1-1.2-2.1-1.6-3.4c-0.3-1.3-0.5-2.6-0.5-4s0.2-2.7,0.5-4
		c0.4-1.3,0.9-2.4,1.7-3.3s1.7-1.7,2.9-2.3c1.2-0.6,2.5-0.8,4.1-0.8s2.9,0.3,4,0.8s2,1.3,2.8,2.2c0.7,0.9,1.2,2,1.6,3.3
		C167.5,230.8,167.6,232.1,167.6,233.6 M163.4,233.6c0-1-0.1-1.9-0.2-2.7c-0.2-0.9-0.4-1.6-0.8-2.3c-0.4-0.6-0.9-1.2-1.5-1.5
		c-0.6-0.4-1.3-0.6-2.2-0.6c-0.9,0-1.7,0.2-2.3,0.6c-0.6,0.4-1.1,0.9-1.5,1.5c-0.4,0.6-0.7,1.4-0.8,2.3c-0.2,0.9-0.3,1.8-0.3,2.7
		c0,1,0.1,1.9,0.3,2.7c0.2,0.9,0.4,1.7,0.8,2.3c0.4,0.7,0.9,1.2,1.5,1.6c0.6,0.4,1.4,0.6,2.3,0.6c0.9,0,1.6-0.2,2.3-0.6
		c0.6-0.4,1.1-0.9,1.5-1.6c0.4-0.7,0.6-1.4,0.8-2.3C163.3,235.5,163.4,234.6,163.4,233.6"/>
	<path class="st0" d="M190.8,243.6h-3.5l-8.5-13.1v13.1h-3.9v-19.9c0.2,0,0.5-0.1,0.8-0.1c0.3,0,0.7-0.1,1-0.1
		c0.6,0,1.1,0.1,1.5,0.3c0.4,0.2,0.7,0.6,1,1l7.7,12.6v-13.8c0.3,0,0.5-0.1,0.8-0.1c0.2,0,0.4,0,0.6,0c0.3,0,0.6,0,0.9,0.1
		c0.3,0.1,0.6,0.2,0.8,0.3c0.2,0.2,0.5,0.4,0.6,0.7c0.2,0.3,0.2,0.7,0.2,1.2L190.8,243.6L190.8,243.6z"/>
	<path class="st0" d="M202.8,231.5h6.4v3.2h-6.4v9h-4.1v-20h12.5c0,0.2,0.1,0.4,0.1,0.6c0,0.1,0,0.3,0,0.6c0,0.6-0.2,1.1-0.5,1.5
		s-1,0.6-1.9,0.6h-6.1V231.5z"/>
	<path class="st0" d="M217.7,223.7c0.3,0,0.5-0.1,0.8-0.1s0.5,0,0.6,0c0.3,0,0.6,0,0.9,0.1c0.3,0.1,0.6,0.2,0.8,0.3
		c0.3,0.2,0.5,0.4,0.6,0.7c0.2,0.3,0.3,0.7,0.3,1.2v17.8h-4.1L217.7,223.7L217.7,223.7z"/>
	<path class="st0" d="M245.5,233.3c0,1.4-0.2,2.7-0.6,4c-0.4,1.2-1,2.3-1.7,3.3c-0.8,0.9-1.8,1.7-3,2.2s-2.6,0.8-4.3,0.8h-6.4v-19.8
		c1.3-0.2,2.4-0.3,3.3-0.3c0.9,0,1.7-0.1,2.3-0.1c2,0,3.6,0.3,5,0.8c1.3,0.5,2.4,1.2,3.2,2.1s1.3,1.9,1.7,3.1
		C245.4,230.7,245.5,232,245.5,233.3 M241.4,233.4c0-0.9-0.1-1.8-0.3-2.6s-0.5-1.5-0.9-2.1c-0.4-0.6-1-1.1-1.8-1.4
		c-0.7-0.3-1.7-0.5-2.8-0.5c-0.6,0-1.2,0-1.8,0.1v13.8h1.6c1.2,0,2.1-0.2,2.9-0.5c0.8-0.4,1.4-0.8,1.8-1.5c0.5-0.6,0.8-1.4,0.9-2.3
		C241.3,235.4,241.4,234.4,241.4,233.4"/>
	<path class="st0" d="M263.3,240.5c1,0,1.6,0.2,2,0.7c0.3,0.4,0.5,0.9,0.5,1.5c0,0.2,0,0.4,0,0.6c0,0.1,0,0.3,0,0.5h-12.9v-20h12.4
		c0,0.2,0.1,0.4,0.1,0.6c0,0.1,0,0.3,0,0.6c0,0.7-0.2,1.2-0.5,1.6c-0.4,0.3-1,0.5-2,0.5H257v4.9h6.3v3.2H257v5.5h6.3V240.5z"/>
	<path class="st0" d="M288.1,243.6h-3.5l-8.5-13.1v13.1h-3.9v-19.9c0.2,0,0.5-0.1,0.8-0.1c0.3,0,0.7-0.1,1-0.1
		c0.6,0,1.1,0.1,1.5,0.3c0.4,0.2,0.7,0.6,1,1l7.7,12.6v-13.8c0.3,0,0.5-0.1,0.8-0.1c0.2,0,0.4,0,0.6,0c0.3,0,0.6,0,0.9,0.1
		c0.3,0.1,0.6,0.2,0.8,0.3c0.2,0.2,0.5,0.4,0.6,0.7c0.2,0.3,0.2,0.7,0.2,1.2L288.1,243.6L288.1,243.6z"/>
	<path class="st0" d="M310.3,242.5c-0.1,0.1-0.3,0.3-0.6,0.4c-0.3,0.2-0.6,0.4-1.1,0.5c-0.5,0.2-1,0.3-1.7,0.5
		c-0.6,0.1-1.4,0.2-2.2,0.2c-1.6,0-3-0.3-4.2-0.8c-1.2-0.5-2.1-1.2-2.9-2.2c-0.8-0.9-1.3-2-1.7-3.3s-0.5-2.6-0.5-4.2
		c0-1.5,0.2-2.9,0.6-4.2c0.4-1.3,1-2.4,1.7-3.3c0.8-0.9,1.7-1.7,2.9-2.2c1.2-0.5,2.5-0.8,4.1-0.8c0.8,0,1.5,0.1,2.1,0.2
		c0.6,0.1,1.2,0.3,1.6,0.5c0.5,0.2,0.9,0.4,1.2,0.6c0.3,0.2,0.5,0.4,0.7,0.5c0.2,0.2,0.3,0.3,0.5,0.6c0.1,0.2,0.2,0.5,0.2,0.7
		c0,0.4-0.1,0.8-0.5,1.2c-0.3,0.4-0.6,0.8-1,1.1c-0.2-0.2-0.5-0.5-0.8-0.7c-0.3-0.3-0.6-0.5-1-0.7c-0.4-0.2-0.8-0.3-1.3-0.5
		c-0.5-0.1-1-0.2-1.6-0.2c-1,0-1.9,0.2-2.6,0.6s-1.2,0.9-1.7,1.6c-0.4,0.7-0.7,1.4-0.9,2.3c-0.2,0.8-0.3,1.7-0.3,2.6
		s0.1,1.8,0.3,2.7c0.2,0.9,0.5,1.6,0.9,2.3c0.4,0.7,1,1.2,1.7,1.6s1.6,0.6,2.6,0.6c0.6,0,1.1-0.1,1.5-0.2c0.5-0.1,0.9-0.3,1.2-0.5
		c0.4-0.2,0.7-0.4,0.9-0.6c0.3-0.2,0.5-0.4,0.7-0.6c0.1,0.1,0.3,0.3,0.4,0.5c0.2,0.2,0.3,0.4,0.4,0.6c0.1,0.2,0.3,0.4,0.4,0.7
		c0.1,0.2,0.1,0.4,0.1,0.6c0,0.3,0,0.5-0.1,0.7C310.7,242.1,310.5,242.3,310.3,242.5"/>
	<path class="st0" d="M328.6,240.5c1,0,1.6,0.2,2,0.7s0.5,0.9,0.5,1.5c0,0.2,0,0.4,0,0.6c0,0.1,0,0.3,0,0.5h-12.9v-20h12.4
		c0,0.2,0.1,0.4,0.1,0.6c0,0.1,0,0.3,0,0.6c0,0.7-0.2,1.2-0.5,1.6c-0.4,0.3-1,0.5-2,0.5h-5.9v4.9h6.3v3.2h-6.3v5.5h6.3V240.5z"/>
	<path class="st0" d="M348.3,223.7c0.3,0,0.5-0.1,0.8-0.1s0.5,0,0.6,0c0.3,0,0.6,0,0.9,0.1s0.6,0.2,0.8,0.3c0.3,0.2,0.5,0.4,0.6,0.7
		c0.2,0.3,0.3,0.7,0.3,1.2v17.8h-4.1v-20H348.3z"/>
	<path class="st0" d="M376,243.6h-3.5l-8.5-13.1v13.1h-3.9v-19.9c0.2,0,0.5-0.1,0.8-0.1s0.7-0.1,1-0.1c0.6,0,1.1,0.1,1.5,0.3
		c0.4,0.2,0.7,0.6,1,1l7.7,12.6v-13.8c0.3,0,0.5-0.1,0.8-0.1c0.2,0,0.4,0,0.6,0c0.3,0,0.6,0,0.9,0.1s0.6,0.2,0.8,0.3
		c0.3,0.2,0.5,0.4,0.6,0.7c0.2,0.3,0.2,0.7,0.2,1.2V243.6z"/>
	<path class="st0" d="M399.2,227H393l0,0c0-0.2-0.1-0.4-0.1-0.6c0-0.2,0-0.4,0-0.6c0-0.5,0.2-1,0.6-1.5s1-0.7,2-0.7h14
		c0.1,0.4,0.1,0.8,0.1,1.3s-0.2,1-0.5,1.4c-0.4,0.4-1,0.6-1.9,0.6h-3.8v16.7h-4.1V227H399.2z"/>
	<path class="st0" d="M426.2,240.5c1,0,1.6,0.2,2,0.7s0.5,0.9,0.5,1.5c0,0.2,0,0.4,0,0.6c0,0.1,0,0.3-0.1,0.5h-12.9v-20h12.4
		c0,0.2,0.1,0.4,0.1,0.6c0,0.1,0,0.3,0,0.6c0,0.7-0.2,1.2-0.5,1.6c-0.4,0.3-1,0.5-2,0.5h-5.9v4.9h6.3v3.2h-6.3v5.5h6.4V240.5z"/>
	<path class="st0" d="M441.9,237.1l-3.8,6.6h-4.5l5.9-10l-5.3-9.5c0.4-0.2,0.8-0.3,1.3-0.5c0.4-0.1,0.9-0.2,1.3-0.2
		c1.1,0,1.9,0.5,2.4,1.5l2.9,5.4l3-5.1c0.4-0.6,0.8-1.1,1.2-1.4c0.4-0.3,0.9-0.4,1.6-0.4c0.4,0,0.8,0.1,1.1,0.1
		c0.3,0.1,0.7,0.3,1.1,0.5l-5.5,9.4l5.8,10c-0.4,0.1-0.8,0.3-1.2,0.3c-0.4,0.1-0.8,0.1-1.2,0.1c-0.8,0-1.4-0.2-1.8-0.5
		s-0.8-0.8-1.2-1.3L441.9,237.1z"/>
	<path class="st0" d="M461,227h-6.2l0,0c0-0.2-0.1-0.4-0.1-0.6c0-0.2,0-0.4,0-0.6c0-0.5,0.2-1,0.6-1.5s1-0.7,2-0.7h14
		c0.1,0.4,0.1,0.8,0.1,1.3s-0.2,1-0.5,1.4c-0.4,0.4-1,0.6-1.9,0.6h-3.8v16.7H461V227z"/>
	<path class="st0" d="M477.4,223.7c0.3,0,0.5-0.1,0.8-0.1s0.5,0,0.6,0c0.3,0,0.6,0,0.9,0.1s0.6,0.2,0.8,0.3c0.3,0.2,0.5,0.4,0.6,0.7
		c0.2,0.3,0.3,0.7,0.3,1.2v17.8h-4.1v-20H477.4z"/>
	<path class="st0" d="M493.5,240.3h5.8c0.5,0,0.9,0.1,1.2,0.2c0.3,0.1,0.6,0.3,0.7,0.5c0.2,0.2,0.3,0.4,0.4,0.7s0.1,0.5,0.1,0.8
		c0,0.2,0,0.4,0,0.7s0,0.4,0,0.5h-12.3v-20c0.3,0,0.6-0.1,0.8-0.1c0.3,0,0.5,0,0.6,0c0.3,0,0.6,0,0.9,0.1s0.6,0.2,0.9,0.3
		c0.3,0.2,0.5,0.4,0.7,0.7s0.3,0.7,0.3,1.2v14.4L493.5,240.3L493.5,240.3z"/>
	<path class="st0" d="M518.9,240.5c1,0,1.6,0.2,2,0.7c0.4,0.4,0.5,0.9,0.5,1.5c0,0.2,0,0.4,0,0.6c0,0.1,0,0.3,0,0.5h-12.9v-20h12.4
		c0,0.2,0.1,0.4,0.1,0.6c0,0.1,0,0.3,0,0.6c0,0.7-0.2,1.2-0.5,1.6c-0.4,0.3-1,0.5-2,0.5h-5.9v4.9h6.3v3.2h-6.3v5.5h6.3V240.5z"/>
	<path class="st0" d="M527.9,239.1c0.6,0.4,1.2,0.9,2,1.3c0.8,0.4,1.8,0.6,2.9,0.6c0.4,0,0.8-0.1,1.2-0.1c0.4-0.1,0.8-0.3,1.1-0.5
		c0.3-0.2,0.6-0.5,0.8-0.8c0.2-0.3,0.3-0.8,0.3-1.3s-0.1-1-0.3-1.3c-0.2-0.4-0.5-0.7-0.9-0.9c-0.4-0.3-0.8-0.5-1.3-0.6
		c-0.5-0.2-1-0.4-1.5-0.5c-0.6-0.2-1.3-0.5-1.9-0.7c-0.6-0.3-1.2-0.6-1.7-1s-0.9-0.9-1.3-1.6c-0.3-0.6-0.5-1.5-0.5-2.5
		s0.2-1.8,0.6-2.5c0.4-0.7,0.9-1.3,1.6-1.8c0.7-0.5,1.4-0.8,2.3-1.1c0.9-0.2,1.8-0.4,2.7-0.4c0.7,0,1.3,0.1,1.8,0.1
		c0.6,0.1,1.1,0.2,1.5,0.4c0.4,0.1,0.8,0.3,1.1,0.4c0.3,0.1,0.5,0.3,0.7,0.4c0.6,0.3,0.8,0.8,0.8,1.3c0,0.2-0.1,0.6-0.3,1
		c-0.2,0.4-0.5,0.8-0.9,1.2c-0.5-0.4-1.1-0.8-1.9-1.1c-0.8-0.4-1.6-0.5-2.5-0.5c-0.4,0-0.7,0-1.1,0.1c-0.4,0.1-0.7,0.2-1,0.4
		c-0.3,0.2-0.6,0.4-0.8,0.7c-0.2,0.3-0.3,0.7-0.3,1.1c0,0.4,0.1,0.8,0.3,1.1c0.2,0.3,0.5,0.6,0.8,0.8c0.3,0.2,0.7,0.4,1.2,0.6
		c0.4,0.2,0.9,0.4,1.4,0.5c0.6,0.2,1.3,0.5,1.9,0.8c0.6,0.3,1.3,0.6,1.8,1.1c0.5,0.4,1,1,1.3,1.6c0.3,0.6,0.5,1.5,0.5,2.4
		c0,1.1-0.2,2-0.6,2.8s-0.9,1.5-1.5,2c-0.6,0.6-1.4,1-2.4,1.3c-0.9,0.3-1.9,0.4-3,0.4c-1.4,0-2.6-0.1-3.5-0.4
		c-0.9-0.3-1.5-0.6-1.9-0.8c-0.2-0.2-0.4-0.3-0.6-0.6c-0.2-0.2-0.2-0.5-0.2-0.7c0-0.3,0.1-0.7,0.4-1.2
		C527.3,239.9,527.6,239.5,527.9,239.1"/>
	<path class="st0" d="M172.3,177.6c0,3.8-0.4,7.4-1.4,10.9c-0.8,3.4-2.3,6.4-4.3,8.9c-2,2.6-4.5,4.6-7.5,6.1
		c-3.1,1.5-6.8,2.2-11.2,2.2c-4.3,0-7.9-0.7-10.9-2.3c-3-1.5-5.5-3.6-7.4-6.1c-1.9-2.6-3.3-5.6-4.2-8.9c-0.9-3.4-1.3-7-1.3-10.7
		s0.5-7.2,1.4-10.6c1-3.4,2.5-6.3,4.5-8.8s4.5-4.5,7.6-6c3.1-1.5,6.7-2.2,11-2.2c4.2,0,7.8,0.7,10.7,2.2c3,1.4,5.4,3.4,7.4,5.8
		c1.9,2.5,3.3,5.4,4.2,8.7C171.8,170.2,172.3,173.8,172.3,177.6 M161,177.7c0-2.5-0.2-5-0.7-7.2c-0.4-2.3-1.1-4.3-2.1-6
		c-1-1.7-2.3-3.1-3.9-4.1s-3.6-1.5-5.9-1.5c-2.5,0-4.5,0.5-6.2,1.5c-1.7,1-3,2.4-4,4.1c-1.1,1.7-1.8,3.7-2.3,6
		c-0.4,2.3-0.7,4.7-0.7,7.2c0,2.6,0.3,5,0.7,7.3c0.5,2.3,1.2,4.4,2.2,6.2s2.3,3.2,4,4.3c1.7,1,3.7,1.6,6,1.6c2.4,0,4.4-0.6,6-1.6
		c1.6-1,3-2.5,4-4.3s1.7-3.8,2.1-6.2C160.8,182.7,161,180.3,161,177.7"/>
	<path class="st0" d="M209.6,196c2.5,0,4.3,0.5,5.2,1.7s1.4,2.5,1.4,3.9c0,0.6,0,1.1-0.1,1.5c0,0.4-0.1,0.8-0.1,1.3h-34.4v-53.3
		h33.1c0.1,0.6,0.2,1.1,0.2,1.5c0,0.4,0.1,0.9,0.1,1.4c0,1.9-0.5,3.3-1.5,4.2c-0.9,0.9-2.7,1.4-5.3,1.4h-15.7v13.1h16.9v8.5h-16.9
		V196H209.6z"/>
	<path class="st0" d="M223.4,151.2c0.8-0.1,1.5-0.2,2.2-0.3c0.7-0.1,1.3-0.1,1.6-0.1c0.8,0,1.6,0.1,2.4,0.2c0.8,0.1,1.6,0.5,2.3,0.9
		c0.7,0.5,1.2,1.1,1.7,1.9c0.4,0.8,0.6,1.9,0.6,3.2v19.2c0.1-1.2,0.5-2.4,1.1-3.5c0.6-1.2,1.4-2.3,2.2-3.4l10.9-14.3
		c1.2-1.6,2.4-2.7,3.7-3.4c1.2-0.6,2.5-0.9,3.8-0.9c1.4,0,2.7,0.2,3.8,0.7c1.1,0.4,2,1,2.7,1.7l-17.6,23.5l19.8,26.8
		c-2,1.2-4.1,1.9-6.2,1.9c-3.6,0-6.4-1.4-8.5-4.1l-11.7-15.1c-1-1.3-1.9-2.6-2.6-4.1c-0.8-1.4-1.2-2.8-1.3-4.4v26.8h-10.9V151.2z"/>
	<path class="st0" d="M312.8,177.6c0,3.8-0.4,7.4-1.4,10.9c-0.9,3.4-2.3,6.4-4.3,8.9c-2,2.6-4.5,4.6-7.5,6.1s-6.8,2.2-11.1,2.2
		c-4.3,0-8-0.7-11-2.3c-3.1-1.5-5.5-3.6-7.4-6.1c-1.9-2.6-3.3-5.6-4.1-8.9c-0.9-3.4-1.3-7-1.3-10.7s0.5-7.2,1.4-10.6
		c1-3.4,2.4-6.3,4.5-8.8c2-2.5,4.5-4.5,7.6-6s6.7-2.2,11-2.2c4.1,0,7.8,0.7,10.8,2.2c3,1.4,5.5,3.4,7.4,5.8c1.9,2.5,3.3,5.4,4.2,8.7
		C312.3,170.2,312.8,173.8,312.8,177.6 M301.6,177.7c0-2.5-0.2-5-0.6-7.2c-0.4-2.3-1.1-4.3-2.1-6c-1-1.7-2.3-3.1-3.9-4.1
		c-1.6-1-3.6-1.5-5.9-1.5c-2.4,0-4.5,0.5-6.2,1.5c-1.6,1-3,2.4-4.1,4.1c-1,1.7-1.8,3.7-2.2,6c-0.5,2.3-0.7,4.7-0.7,7.2
		c0,2.6,0.3,5,0.7,7.3s1.2,4.4,2.2,6.2s2.4,3.2,4,4.3c1.6,1,3.6,1.6,6,1.6c2.3,0,4.4-0.6,6.1-1.6c1.6-1,2.9-2.5,3.9-4.3
		s1.7-3.8,2.2-6.2C301.4,182.7,301.6,180.3,301.6,177.7"/>
	<path class="st0" d="M327.5,186.3c-3.8,0-5.7-1.7-5.7-5c0-1.2,0.1-2.3,0.2-3.4h20c1.7,0,3.2,0.3,4.3,0.9c1.1,0.6,1.7,1.9,1.7,4.1
		v1.7c-0.1,0.6-0.1,1.1-0.1,1.7L327.5,186.3L327.5,186.3z"/>
	<path class="st0" d="M362.3,160.1h-16.6V160c-0.1-0.7-0.1-1.2-0.2-1.6c0-0.4-0.1-0.9-0.1-1.5c0-1.4,0.5-2.7,1.6-3.9
		c1-1.2,2.8-1.8,5.2-1.8h37.4c0.2,1.1,0.2,2.3,0.2,3.4c0,1.4-0.5,2.7-1.4,3.8c-1,1.1-2.7,1.7-5.1,1.7h-10v44.4h-11V160.1z"/>
	<path class="st0" d="M423.8,196c2.6,0,4.3,0.5,5.2,1.7c0.9,1.2,1.4,2.5,1.4,3.9c0,0.6,0,1.1,0,1.5c-0.1,0.4-0.1,0.8-0.1,1.3h-34.5
		v-53.3H429c0.1,0.6,0.2,1.1,0.2,1.5c0,0.4,0.1,0.9,0.1,1.4c0,1.9-0.5,3.3-1.4,4.2c-1,0.9-2.8,1.4-5.4,1.4h-15.7v13.1h16.9v8.5
		h-16.9V196H423.8z"/>
	<path class="st0" d="M455,186.9l-10.1,17.6H433l15.7-26.5l-14-25.3c1.1-0.5,2.2-0.9,3.3-1.3c1.2-0.3,2.4-0.5,3.6-0.5
		c2.9,0,5,1.3,6.4,3.9l7.7,14.4l7.8-13.5c1-1.7,2.1-2.9,3.1-3.7c1-0.8,2.5-1.1,4.3-1.1c1.1,0,2.1,0.1,3,0.4s1.8,0.7,2.8,1.2
		l-14.8,25l15.5,26.7c-1,0.3-2.1,0.7-3.2,0.8c-1.1,0.2-2.1,0.3-3,0.3c-2.1,0-3.8-0.5-4.9-1.3c-1.1-0.9-2.2-2.1-3-3.6L455,186.9z"/>
	<path class="st0" d="M517.4,156.7c11.8,0,21.4,9.6,21.4,21.3c0,11.8-9.6,21.3-21.4,21.3c-11.8,0-21.3-9.6-21.3-21.3
		C496,166.2,505.6,156.7,517.4,156.7 M517.4,149.9c-15.5,0-28.1,12.6-28.1,28.1s12.6,28.1,28.1,28.1c15.5,0,28.1-12.6,28.1-28.1
		S532.9,149.9,517.4,149.9"/>
	<path class="st0" d="M527.6,171.6c0,1.2-0.1,2.2-0.4,3c-0.3,0.9-0.7,1.6-1.2,2.3c-0.5,0.7-1.1,1.2-1.7,1.6s-1.2,0.8-1.9,1l6.8,11.3
		c-0.5,0.2-1.1,0.4-1.6,0.5c-0.6,0.1-1.2,0.2-1.7,0.2c-1,0-1.9-0.2-2.5-0.7c-0.7-0.4-1.3-1.1-1.9-2.1l-4.7-8h-2.3V191h-5.7v-27.3
		c1.3-0.1,2.5-0.2,3.8-0.3c1.3-0.1,2.4-0.1,3.5-0.1c4,0,6.9,0.7,8.7,2C526.6,166.8,527.6,168.8,527.6,171.6 M521.7,172.1
		c0-1.7-0.5-2.9-1.3-3.6c-0.9-0.7-2.1-1-3.7-1c-0.5,0-0.9,0-1.3,0s-0.7,0-0.9,0.1v9.5h1.9c1.6,0,2.9-0.4,3.9-1.2
		C521.2,175,521.7,173.8,521.7,172.1"/>
</g>
<g>
	<path class="st1" d="M609,251c-6.5,2.6-10.3,7.9-8.1,11.6c1.1,1.8,3.4,2.5,5.3,1.4c1.9-1.1,2.5-3.5,1.4-5.3
		c-3-5.2-15.8-5.8-20.1-13.3c-1.9-3.3-0.8-7.5,2.5-9.4c3.3-1.9,7.5-0.8,9.4,2.5c2.9,4.9,0,13.8-6,21.4c-4.3,5.5-4.9,12-1.2,14.2
		c1.9,1.1,4.2,0.4,5.3-1.4c1.1-1.9,0.4-4.2-1.4-5.3c-5.2-3-16.6,2.8-24-1.5c-3.3-1.9-4.4-6.1-2.5-9.4s6.1-4.4,9.4-2.5
		c4.9,2.8,6.9,11.9,5.5,21.6c-1,6.9,1.8,12.9,6.1,12.9c2.1,0,3.9-1.7,3.9-3.9c0-2.1-1.7-3.9-3.9-3.9c-6,0-13,10.8-21.6,10.8
		c-3.8,0-6.9-3.1-6.9-6.9s3.1-6.9,6.9-6.9c5.7,0,12,6.9,15.5,15.9c2.6,6.5,7.9,10.3,11.7,8.1c1.9-1.1,2.5-3.4,1.4-5.3
		c-1.1-1.8-3.5-2.5-5.3-1.4c-5.2,3-5.9,15.8-13.3,20.1c-3.3,1.9-7.5,0.8-9.4-2.5s-0.8-7.5,2.5-9.4c4.9-2.8,13.8,0,21.4,6.1
		c5.5,4.3,12,4.9,14.2,1.2c1.1-1.9,0.4-4.2-1.4-5.3c-1.9-1.1-4.2-0.4-5.3,1.4c-3,5.2,2.8,16.6-1.5,24c-1.9,3.3-6.1,4.4-9.4,2.5
		c-3.3-1.9-4.4-6.1-2.5-9.4c2.8-4.9,11.9-6.9,21.6-5.4c6.9,1,12.8-1.7,12.8-6.1c0-2.1-1.7-3.9-3.9-3.9c-2.1,0-3.9,1.7-3.9,3.9
		c0,6,10.8,13,10.8,21.5c0,3.8-3.1,6.9-6.9,6.9c-3.8,0-6.9-3.1-6.9-6.9c0-5.7,6.9-11.9,16-15.5c6.5-2.6,10.3-7.9,8.1-11.7
		c-1.1-1.8-3.4-2.5-5.3-1.4c-1.9,1.1-2.5,3.5-1.4,5.3c3,5.2,15.8,5.8,20.1,13.3c1.9,3.3,0.8,7.5-2.5,9.4c-3.3,1.9-7.5,0.8-9.4-2.5
		c-2.8-4.9,0-13.8,6.1-21.4c4.3-5.5,4.9-12,1.2-14.2c-1.8-1.1-4.2-0.4-5.3,1.4c-1.1,1.9-0.4,4.2,1.4,5.3c5.2,3,16.6-2.8,24,1.4
		c3.3,1.9,4.4,6.1,2.5,9.4s-6.1,4.4-9.4,2.5c-4.9-2.8-6.9-12-5.5-21.6c1-6.9-1.7-12.9-6.1-12.9c-2.1,0-3.9,1.7-3.9,3.9
		c0,2.1,1.7,3.9,3.9,3.9c6,0,13-10.8,21.5-10.8c3.8,0,6.9,3.1,6.9,6.9s-3.1,6.9-6.9,6.9c-5.7,0-11.9-6.9-15.5-15.9
		c-2.6-6.5-7.9-10.3-11.7-8.1c-1.8,1-2.5,3.4-1.4,5.3c1.1,1.9,3.5,2.5,5.3,1.4c5.2-3,5.8-15.8,13.3-20.1c3.3-1.9,7.5-0.8,9.4,2.5
		c1.9,3.3,0.8,7.5-2.5,9.4c-4.9,2.8-13.8,0-21.4-6.1c-5.5-4.3-12-4.9-14.1-1.2c-1.1,1.9-0.4,4.2,1.4,5.3c1.8,1.1,4.2,0.4,5.3-1.4
		c3-5.2-2.8-16.6,1.5-24c1.9-3.3,6.1-4.4,9.4-2.5c3.3,1.9,4.4,6.1,2.5,9.4c-2.8,4.9-11.9,6.9-21.5,5.5c-6.9-1-12.9,1.7-12.9,6
		c0,2.1,1.7,3.9,3.9,3.9c2.1,0,3.9-1.7,3.9-3.9c0-6-10.8-13-10.8-21.5c0-3.8,3.1-6.9,6.9-6.9c3.8,0,6.9,3.1,6.9,6.9
		C625,241.1,618.1,247.4,609,251z"/>
</g>
<g>
	<path class="st2" d="M598.7,283.5c0.2-3,1-5.8,2.3-8.3h6.6c-0.6,2.6-0.9,5.4-0.9,8.3H598.7z"/>
	<path class="st2" d="M608.2,295.9c0.7,2.5,1.6,4.8,2.7,6.6c-3.4-1.4-6.4-3.7-8.6-6.6H608.2z"/>
	<path class="st2" d="M606.7,285.6c0.1,2.9,0.4,5.7,0.9,8.3H601c-1.4-2.5-2.2-5.3-2.4-8.3H606.7z"/>
	<path class="st2" d="M602.3,273.2c2.2-3,5.1-5.3,8.6-6.7c-1.1,1.8-2.1,4.1-2.8,6.7H602.3z"/>
	<path class="st2" d="M625.2,266.5c3.4,1.4,6.4,3.7,8.6,6.7H628C627.3,270.6,626.3,268.4,625.2,266.5"/>
	<path class="st2" d="M633.8,295.9c-2.2,3-5.1,5.3-8.6,6.6c1.1-1.8,2.1-4.1,2.8-6.6H633.8z"/>
	<path class="st2" d="M637.4,285.6c-0.2,3-1,5.8-2.4,8.3h-6.6c0.6-2.6,0.9-5.4,1-8.3H637.4z"/>
	<path class="st2" d="M635.1,275.2c1.4,2.5,2.2,5.3,2.4,8.3h-8c-0.1-2.9-0.4-5.7-1-8.3H635.1z"/>
	<path class="st2" d="M614.3,265.5c0.9-0.2,1.8-0.3,2.8-0.3v8h-6.8C611.3,269.8,612.7,267.2,614.3,265.5"/>
	<path class="st2" d="M608.8,283.5c0.1-3,0.4-5.8,1-8.3h7.3v8.3H608.8z"/>
	<path class="st2" d="M609.7,293.9c-0.5-2.5-0.9-5.3-1-8.3h8.3v8.3H609.7z"/>
	<path class="st2" d="M617,303.9c-0.9-0.1-1.8-0.2-2.8-0.3c-1.6-1.7-3-4.3-4-7.6h6.8V303.9z"/>
	<path class="st2" d="M625.8,295.9c-1,3.4-2.4,6-4,7.6c-0.9,0.2-1.8,0.3-2.8,0.3v-8h6.8V295.9z"/>
	<path class="st2" d="M627.4,285.6c-0.1,3-0.4,5.8-1,8.3h-7.3v-8.3H627.4z"/>
	<path class="st2" d="M626.4,275.2c0.5,2.5,0.9,5.3,1,8.3h-8.3v-8.3H626.4z"/>
</g>
<g>
	<path class="st2" d="M619.1,265.2c1,0.1,1.9,0.2,2.8,0.3c1.6,1.7,3,4.3,4,7.7h-6.7L619.1,265.2L619.1,265.2z"/>
	<path class="st2" d="M77.1,299.9c1.3,1,3,2.1,4.9,3.1s4.2,1.5,6.9,1.5c1,0,2-0.1,2.9-0.4c1-0.2,1.8-0.6,2.5-1.1s1.4-1.1,1.8-2
		c0.5-0.8,0.7-1.8,0.7-3s-0.3-2.3-0.8-3.1c-0.5-0.9-1.2-1.6-2.1-2.2c-0.9-0.6-1.9-1.1-3-1.5c-1.1-0.4-2.3-0.9-3.5-1.3
		c-1.5-0.5-3.1-1.1-4.6-1.7c-1.5-0.6-2.9-1.4-4.2-2.4c-1.2-1-2.3-2.3-3-3.8c-0.8-1.5-1.2-3.5-1.2-5.9c0-2.3,0.5-4.3,1.4-6
		c0.9-1.7,2.1-3.2,3.7-4.4s3.4-2,5.4-2.6s4.2-0.9,6.5-0.9c1.6,0,3,0.1,4.4,0.4c1.4,0.2,2.6,0.5,3.6,0.9c1.1,0.3,2,0.7,2.7,1
		c0.7,0.4,1.3,0.7,1.7,1c1.3,0.8,2,1.8,2,3.2c0,0.6-0.2,1.3-0.7,2.3s-1.2,1.9-2.1,2.9c-1.2-0.9-2.7-1.8-4.6-2.7
		c-1.9-0.8-3.9-1.3-6-1.3c-0.9,0-1.7,0.1-2.6,0.2c-0.9,0.2-1.7,0.5-2.5,0.8c-0.7,0.4-1.3,1-1.8,1.7c-0.5,0.7-0.7,1.6-0.7,2.6
		s0.2,1.9,0.7,2.6s1.1,1.4,1.9,1.9s1.7,1,2.8,1.5c1.1,0.4,2.2,0.8,3.3,1.3c1.5,0.6,3.1,1.2,4.6,1.8c1.6,0.7,3,1.5,4.3,2.5
		s2.3,2.3,3.1,3.8s1.2,3.5,1.2,5.8c0,2.5-0.4,4.7-1.3,6.6c-0.9,1.9-2.1,3.5-3.7,4.9c-1.6,1.3-3.5,2.3-5.7,3c-2.2,0.7-4.6,1-7.3,1
		c-3.4,0-6.2-0.3-8.3-1c-2.1-0.7-3.7-1.3-4.6-1.9c-0.6-0.4-1-0.8-1.4-1.3s-0.6-1.1-0.6-1.8c0-0.8,0.3-1.8,1-2.9
		C75.7,301.9,76.4,300.9,77.1,299.9"/>
</g>
<g>
	<path class="st2" d="M125,271.2h-15v-0.1c-0.1-0.6-0.2-1-0.2-1.4c0-0.4,0-0.8,0-1.4c0-1.3,0.5-2.5,1.4-3.5c0.9-1.1,2.5-1.6,4.7-1.6
		h33.6c0.1,1,0.2,2,0.2,3.1c0,1.2-0.4,2.4-1.3,3.4s-2.4,1.5-4.6,1.5h-9v39.6H125V271.2z"/>
	<path class="st2" d="M176.9,310.8l-4.1-11.7h-16.5l-3.9,11.7h-9.7l16.6-46.9c0.6-0.2,1.4-0.5,2.4-0.7c1-0.2,2.1-0.3,3.3-0.3
		c0.5,0,1.1,0.1,1.7,0.1c0.6,0.1,1.3,0.3,1.9,0.6s1.2,0.7,1.7,1.3c0.6,0.6,1,1.4,1.3,2.3l15.4,43.5L176.9,310.8L176.9,310.8z
		 M164.7,271.8l-6.5,20.2H171L164.7,271.8z"/>
	<path class="st2" d="M230.1,310.8h-8.3l-20.4-31.3v31.3H192v-47.5c0.5-0.1,1.1-0.2,1.9-0.3c0.8-0.1,1.6-0.1,2.4-0.1
		c1.5,0,2.7,0.3,3.6,0.8c0.9,0.5,1.6,1.3,2.3,2.4l18.4,29.9v-32.8c0.7-0.1,1.3-0.2,1.9-0.2c0.6-0.1,1-0.1,1.4-0.1
		c0.7,0,1.4,0.1,2.1,0.2c0.7,0.1,1.4,0.4,2,0.8c0.6,0.4,1.1,1,1.5,1.7s0.6,1.7,0.6,2.8L230.1,310.8L230.1,310.8z"/>
	<path class="st2" d="M277.6,286.2c0,3.4-0.5,6.5-1.4,9.5s-2.3,5.6-4.1,7.8c-1.9,2.2-4.2,4-7.1,5.3c-2.9,1.3-6.3,2-10.2,2h-15.2
		v-47.2c3-0.4,5.7-0.6,7.8-0.7c2.2-0.1,4-0.1,5.6-0.1c4.8,0,8.7,0.6,11.9,1.9c3.2,1.3,5.7,2.9,7.5,5.1c1.9,2.1,3.2,4.6,4,7.5
		C277.2,280.1,277.6,283.1,277.6,286.2 M267.6,286.4c0-2.2-0.2-4.3-0.6-6.3c-0.4-1.9-1.2-3.6-2.2-5.1s-2.5-2.6-4.3-3.4
		s-4-1.2-6.8-1.2c-1.4,0-2.8,0.1-4.3,0.2v32.7h3.9c2.8,0,5.1-0.4,7-1.2c1.8-0.8,3.3-2,4.4-3.5s1.8-3.3,2.3-5.4
		C267.4,291.2,267.6,288.9,267.6,286.4"/>
	<path class="st2" d="M312.5,310.8l-4.1-11.7h-16.5l-3.9,11.7h-9.7l16.6-46.9c0.6-0.2,1.4-0.5,2.4-0.7c1-0.2,2.1-0.3,3.3-0.3
		c0.5,0,1.1,0.1,1.7,0.1c0.6,0.1,1.3,0.3,1.9,0.6c0.6,0.3,1.2,0.7,1.7,1.3c0.6,0.6,1,1.4,1.3,2.3l15.4,43.5L312.5,310.8L312.5,310.8
		z M300.2,271.8l-6.5,20.2h12.8L300.2,271.8z"/>
	<path class="st2" d="M360.6,276.9c0,2-0.3,3.7-0.8,5.3c-0.5,1.5-1.2,2.8-2,4c-0.9,1.1-1.8,2.1-2.9,2.8c-1.1,0.8-2.2,1.4-3.4,1.8
		l11.8,19.6c-0.9,0.4-1.9,0.7-2.9,0.9c-1,0.2-1.9,0.3-2.9,0.3c-1.8,0-3.2-0.4-4.4-1.1c-1.2-0.8-2.3-2-3.3-3.7l-8.1-13.8h-3.9v17.9
		H328v-47.3c2.1-0.2,4.3-0.4,6.6-0.5c2.2-0.1,4.3-0.2,6.1-0.2c6.9,0,12,1.2,15.2,3.5C359,268.6,360.6,272.1,360.6,276.9
		 M350.3,277.8c0-3-0.8-5.1-2.4-6.3s-3.7-1.8-6.4-1.8c-0.9,0-1.6,0-2.2,0.1c-0.6,0-1.1,0.1-1.6,0.1v16.4h3.4c2.9,0,5.1-0.7,6.8-2.1
		C349.5,282.8,350.3,280.7,350.3,277.8"/>
	<path class="st2" d="M407.1,286.2c0,3.4-0.5,6.5-1.4,9.5s-2.3,5.6-4.1,7.8c-1.9,2.2-4.2,4-7.1,5.3c-2.9,1.3-6.3,2-10.2,2h-15.2
		v-47.2c3-0.4,5.7-0.6,7.8-0.7c2.2-0.1,4-0.1,5.6-0.1c4.8,0,8.7,0.6,11.9,1.9c3.2,1.3,5.7,2.9,7.5,5.1c1.9,2.1,3.2,4.6,4,7.5
		C406.7,280.1,407.1,283.1,407.1,286.2 M397.1,286.4c0-2.2-0.2-4.3-0.6-6.3c-0.4-1.9-1.2-3.6-2.2-5.1c-1-1.4-2.5-2.6-4.3-3.4
		s-4-1.2-6.8-1.2c-1.4,0-2.8,0.1-4.3,0.2v32.7h3.9c2.8,0,5.1-0.4,7-1.2c1.8-0.8,3.3-2,4.4-3.5s1.8-3.3,2.3-5.4
		C396.9,291.2,397.1,288.9,397.1,286.4"/>
	<path class="st2" d="M445.1,310.8v-35.9l-9.4,4.7c-0.7-0.9-1.3-1.9-2-2.9c-0.6-1-1-2-1-2.9c0-0.6,0.2-1.1,0.5-1.7
		c0.4-0.6,0.9-1.1,1.8-1.5l10.1-5.3c1-0.5,1.9-0.9,2.7-1.2c0.9-0.4,1.8-0.5,2.8-0.5s1.8,0.1,2.4,0.4c0.7,0.3,1.2,0.5,1.6,0.7v46.1
		H445.1L445.1,310.8z"/>
	<path class="st2" d="M503,287.6c0,7.8-1.4,13.8-4.3,18s-7.3,6.3-13.3,6.3c-6.1,0-10.5-2-13.4-6.1c-2.9-4-4.3-10.1-4.3-18.2
		c0-3.7,0.4-7.1,1.1-10.1s1.9-5.6,3.4-7.7c1.5-2.1,3.4-3.8,5.6-4.9c2.3-1.1,4.9-1.7,7.9-1.7c3.1,0,5.7,0.6,7.9,1.7
		c2.2,1.1,4,2.7,5.4,4.8s2.4,4.6,3,7.7C502.7,280.3,503,283.8,503,287.6 M493.4,287.6c0-3.1-0.2-5.8-0.5-7.9
		c-0.4-2.2-0.9-3.9-1.5-5.2c-0.7-1.3-1.5-2.2-2.5-2.8s-2.1-0.9-3.3-0.9c-1.2,0-2.4,0.3-3.4,0.9s-1.9,1.5-2.5,2.8
		c-0.7,1.3-1.2,3-1.6,5.2s-0.5,4.8-0.5,7.9s0.2,5.7,0.5,7.8c0.4,2.1,0.9,3.8,1.6,5.2c0.7,1.3,1.5,2.3,2.5,2.8c1,0.6,2.1,0.9,3.4,0.9
		c1.2,0,2.3-0.3,3.3-0.9c1-0.6,1.8-1.5,2.5-2.8s1.2-3,1.5-5.1C493.2,293.3,493.4,290.7,493.4,287.6"/>
	<path class="st2" d="M542.3,287.6c0,7.8-1.4,13.8-4.3,18s-7.3,6.3-13.3,6.3c-6.1,0-10.5-2-13.4-6.1c-2.9-4-4.3-10.1-4.3-18.2
		c0-3.7,0.4-7.1,1.1-10.1s1.9-5.6,3.4-7.7c1.5-2.1,3.4-3.8,5.7-4.9c2.3-1.1,4.9-1.7,7.9-1.7c3.1,0,5.7,0.6,7.9,1.7
		c2.2,1.1,4,2.7,5.4,4.8s2.4,4.6,3,7.7C541.9,280.3,542.3,283.8,542.3,287.6 M532.6,287.6c0-3.1-0.2-5.8-0.5-7.9
		c-0.4-2.2-0.9-3.9-1.5-5.2c-0.7-1.3-1.5-2.2-2.5-2.8s-2.1-0.9-3.3-0.9c-1.2,0-2.4,0.3-3.4,0.9s-1.8,1.5-2.5,2.8
		c-0.7,1.3-1.2,3-1.6,5.2c-0.4,2.2-0.5,4.8-0.5,7.9s0.2,5.7,0.5,7.8c0.4,2.1,0.9,3.8,1.6,5.2c0.7,1.3,1.5,2.3,2.5,2.8
		c1,0.6,2.1,0.9,3.4,0.9c1.2,0,2.3-0.3,3.3-0.9c1-0.6,1.8-1.5,2.5-2.8c0.7-1.3,1.2-3,1.5-5.1C532.4,293.3,532.6,290.7,532.6,287.6"
		/>
</g>
</svg>
