<?xml version="1.0" encoding="utf-8"?>
<!-- Generator: Adobe Illustrator 27.0.0, SVG Export Plug-In . SVG Version: 6.00 Build 0)  -->
<svg version="1.1" id="Layer_1" xmlns="http://www.w3.org/2000/svg" xmlns:xlink="http://www.w3.org/1999/xlink" x="0px" y="0px"
	 viewBox="0 0 383.46 286.46" style="enable-background:new 0 0 383.46 286.46;" xml:space="preserve">
<style type="text/css">
	.st0{fill:#0D9C4A;}
	.st1{fill:#4D4D4F;}
	.st2{fill:#FFFFFF;}
	.st3{fill:none;stroke:#0D9C4A;stroke-width:0.5595;stroke-miterlimit:10;}
</style>
<g>
	<path class="st0" d="M191.73,69.09c40.95,0,74.14,33.19,74.14,74.14h39.24c0-62.62-50.76-113.39-113.39-113.39
		c-62.62,0-113.39,50.76-113.39,113.39h39.24C117.59,102.28,150.78,69.09,191.73,69.09z"/>
	<g>
		<path class="st1" d="M191.73,217.37c-40.95,0-74.14-33.19-74.14-74.14H78.34c0,62.62,50.76,113.39,113.39,113.39
			c62.62,0,113.39-50.76,113.39-113.39h-39.24C265.87,184.18,232.68,217.37,191.73,217.37z"/>
		<g>
			<path class="st2" d="M107.11,108.21l-0.06-0.03c-5.66-3.18-8.02-9.81-4.92-15.34c3.11-5.53,9.92-6.92,15.57-3.73l0.06,0.03
				c5.66,3.18,8.02,9.81,4.92,15.34C119.57,110,112.77,111.39,107.11,108.21z M115.51,93.29l-0.06-0.03
				c-3.41-1.92-7.52-1.27-9.3,1.91c-1.79,3.17-0.24,6.94,3.17,8.86l0.06,0.03c3.41,1.92,7.52,1.26,9.3-1.91
				C120.46,98.97,118.91,95.21,115.51,93.29z"/>
			<path class="st2" d="M112.96,77.29l6.58-6.7c1.83-1.86,3.83-2.73,5.85-2.65c1.71,0.08,3.42,0.89,4.96,2.4l0.05,0.05
				c2.63,2.58,3.03,5.48,1.97,8.1l9.34,2.13L138,84.4l-8.3-1.98l-2.49,2.53l5.22,5.12l-3.16,3.22L112.96,77.29z M127.25,78.57
				c1.54-1.57,1.49-3.39,0.12-4.74l-0.05-0.05c-1.54-1.51-3.27-1.32-4.81,0.25l-3.15,3.2l4.68,4.6L127.25,78.57z"/>
			<path class="st2" d="M136.42,70.41l-0.03-0.05c-3.34-5.56-2.18-12.47,3.16-15.68c3.17-1.91,5.66-2.11,8.54-1.48l-0.48,4.74
				c-2.11-0.44-3.76-0.44-5.8,0.79c-2.82,1.7-3.4,5.81-1.4,9.14l0.04,0.06c2.15,3.58,5.94,4.87,9.06,2.99
				c1.41-0.85,2.43-2,2.94-3.37l-1.68-2.79l-3.9,2.35l-2.23-3.72l7.65-4.61l5.11,8.5c-0.79,2.79-2.44,5.69-5.66,7.63
				C146.24,78.2,139.89,76.19,136.42,70.41z"/>
			<path class="st2" d="M161.73,45.12l4.01-1.14l14.74,19.72l-4.54,1.29l-3.2-4.41l-8.36,2.37l-0.41,5.44l-4.43,1.26L161.73,45.12z
				 M169.96,56.75l-4.64-6.38l-0.61,7.87L169.96,56.75z"/>
			<path class="st2" d="M181.34,41l4.17-0.07l9.85,13.9l-0.22-14.05l4.46-0.07l0.36,22.82l-3.85,0.06l-10.18-14.35l0.23,14.51
				l-4.46,0.07L181.34,41z"/>
			<path class="st2" d="M207.45,42l4.45,0.79l-3.99,22.49l-4.45-0.79L207.45,42z"/>
			<path class="st2" d="M214.62,54.74l0.02-0.06c2.26-6.09,8.24-9.54,14.15-7.34c3.63,1.35,5.31,3.5,6.37,6.12l-3.98,2.45
				c-0.93-2.05-2.1-3.53-4.03-4.24c-3.25-1.2-6.7,0.92-8.06,4.6l-0.02,0.06c-1.36,3.67-0.21,7.58,3.09,8.8
				c2.2,0.82,3.91,0.34,6-0.63l1.57,4.03c-2.85,1.62-5.6,2.27-9.32,0.89C214.75,67.31,212.34,60.89,214.62,54.74z"/>
			<path class="st2" d="M249.52,64.73l-3.45-1.37l1.72-3.85l5.9,1.98l2.46,1.85l-13.83,18.38l-3.57-2.68L249.52,64.73z"/>
			<path class="st2" d="M253.08,75.53l0.05-0.04c4.91-4.44,11.23-5.18,14.89-1.12c3.64,4.03,2.3,10.19-2.61,14.63l-0.05,0.04
				c-4.91,4.44-11.21,5.2-14.89,1.12C246.79,86.09,248.16,79.97,253.08,75.53z M262.2,85.64l0.05-0.05
				c3.07-2.78,4.17-6.23,2.36-8.23c-1.81-2-5.24-1.28-8.33,1.52l-0.05,0.05c-3.1,2.8-4.19,6.21-2.37,8.23
				C255.69,89.19,259.13,88.42,262.2,85.64z"/>
			<path class="st2" d="M267.7,92.45l0.06-0.03c5.84-3.11,12.17-2.29,14.74,2.54c2.56,4.8-0.23,10.45-6.08,13.56l-0.06,0.03
				c-5.84,3.11-12.15,2.31-14.74-2.54C259.03,101.16,261.85,95.56,267.7,92.45z M274.11,104.48l0.06-0.03
				c3.66-1.95,5.56-5.03,4.29-7.41c-1.27-2.38-4.78-2.51-8.46-0.55l-0.06,0.03c-3.69,1.96-5.58,5-4.29,7.41
				C266.94,106.34,270.46,106.43,274.11,104.48z"/>
		</g>
		<g>
			<path class="st2" d="M101.06,164.52c2.01-0.69,2.84-2.05,2.46-4.08c-0.57-3.03-3.98-3.42-6.64-2.92c-2.63,0.5-5.53,2.04-4.97,5
				c0.42,2.23,2.09,3.19,4.38,3.07l0.86,4.56c-4.92,0.27-8.12-2.33-8.98-6.89c-0.98-5.19,2.22-9.41,7.64-10.43
				c5.63-1.06,10.4,1.35,11.45,6.94c0.76,4.06-0.77,8.24-5.34,9.37L101.06,164.52z"/>
			<path class="st2" d="M112.62,177.11c2.18,5.07,0.05,9.86-5.36,12.18c-5.37,2.31-10.31,0.56-12.49-4.51
				c-2.17-5.04-0.03-9.82,5.34-12.13C105.52,170.33,110.46,172.07,112.62,177.11z M98.28,183.27c1.29,3.01,4.37,2.76,7.09,1.6
				c2.72-1.17,5.05-3.24,3.75-6.25c-1.28-2.98-4.39-2.72-7.1-1.55C99.3,178.23,97,180.29,98.28,183.27z"/>
			<path class="st2" d="M116.78,187.31l2.68,3.7l-2.08,1.5l0.06,0.08c2.42-0.25,4.43,0.89,5.62,2.54c3,4.14,1.3,6.96-2.39,9.64
				l-9.17,6.64l-2.82-3.9l8.42-6.1c2.45-1.78,3.19-3.31,1.85-5.15c-1.53-2.11-3.42-2.12-6.45,0.07l-7.82,5.66l-2.82-3.89
				L116.78,187.31z"/>
			<path class="st2" d="M132.68,206.52l2.52,2.46l-2.36,2.42l-2.52-2.46l-6.37,6.53c-1.2,1.23-1.2,1.82-0.04,2.95
				c0.39,0.38,0.78,0.71,1.17,0.94l-2.76,2.83c-0.68-0.47-1.46-1.17-2.14-1.84c-2.13-2.08-3.47-4.34-0.89-7l7.59-7.78l-2.08-2.04
				l2.37-2.42l2.08,2.04l3.86-3.95l3.44,3.36L132.68,206.52z"/>
			<path class="st2" d="M133.32,220.76c-1.73,2.74-1.35,4.74,0.87,6.28c1.58,1.1,3.57,0.96,4.47,0.2l3.47,2.41
				c-3.61,2.83-7,2.68-10.26,0.42c-4.53-3.14-5.07-8.37-1.82-13.05c3.14-4.53,8.51-5.92,12.88-2.9c4.89,3.4,4.28,9.39,0.75,13.83
				L133.32,220.76z M141.57,222.58c1.1-2.36,1.01-4.07-0.91-5.4c-2.56-1.78-4.62-0.17-5.51,0.94L141.57,222.58z"/>
			<path class="st2" d="M151.2,220.16l4.22,1.74l-0.98,2.37l0.09,0.04c1.93-1.48,4.24-1.57,6.12-0.79c4.72,1.95,4.76,5.23,3.02,9.45
				l-4.32,10.48l-4.44-1.83l3.97-9.62c1.15-2.8,0.98-4.49-1.12-5.36c-2.41-0.99-4.03,0-5.46,3.46l-3.68,8.93l-4.44-1.83
				L151.2,220.16z"/>
			<path class="st2" d="M174.8,228.15l3.43,0.76l-0.73,3.3l-3.44-0.76l-1.98,8.9c-0.37,1.67-0.07,2.17,1.52,2.53
				c0.53,0.12,1.03,0.19,1.48,0.18l-0.86,3.86c-0.83-0.04-1.85-0.23-2.78-0.43c-2.91-0.65-5.24-1.86-4.44-5.47l2.35-10.61
				l-2.84-0.63l0.73-3.3l2.84,0.63l1.2-5.39l4.69,1.04L174.8,228.15z"/>
			<path class="st2" d="M192.11,242.26c0.08,2.17,1.95,3.03,3.81,2.95c1.36-0.05,3.13-0.69,3.06-2.47
				c-0.06-1.53-2.11-2.02-5.56-2.64c-2.83-0.57-5.61-1.42-5.74-4.7c-0.18-4.7,3.63-6.06,7.39-6.21c3.79-0.15,7.39,1.07,7.94,5.58
				l-4.57,0.18c-0.21-1.95-1.65-2.43-3.38-2.37c-1.08,0.04-2.66,0.28-2.61,1.82c0.07,1.82,2.82,1.96,5.55,2.53
				c2.83,0.57,5.61,1.53,5.75,4.95c0.18,4.85-3.78,6.57-7.74,6.72c-4.06,0.16-8.11-1.29-8.47-6.16L192.11,242.26z"/>
			<path class="st2" d="M210.98,227.65l3.45-0.7l0.68,3.32l-3.45,0.7l1.82,8.94c0.34,1.67,0.83,2.01,2.42,1.69
				c0.53-0.11,1.02-0.24,1.43-0.44l0.79,3.88c-0.77,0.3-1.79,0.55-2.72,0.73c-2.92,0.59-5.54,0.43-6.28-3.2l-2.17-10.65l-2.85,0.58
				l-0.67-3.32l2.85-0.58l-1.1-5.41l4.71-0.95L210.98,227.65z"/>
			<path class="st2" d="M217.48,232.17c-1.44-4.48,1.79-7.3,5.45-8.72c3.25-1.26,7.46-2.01,9.05,2.11l3.45,8.93
				c0.61,1.56,1.37,3.06,2.05,3.6l-4.55,1.76c-0.36-0.47-0.71-0.99-0.96-1.54c-0.82,2.11-2.65,3.47-4.67,4.25
				c-3.12,1.21-6.18,0.53-7.55-2.99c-2.95-7.83,9.65-7.9,7.97-11.68c-0.77-1.99-2.23-1.81-3.8-1.2c-1.74,0.67-2.53,1.82-1.97,3.74
				L217.48,232.17z M229.18,231.65c-0.49,0.99-2.05,1.64-3.34,2.44c-1.29,0.8-2.35,1.82-1.68,3.55c0.67,1.73,2.14,1.69,3.6,1.13
				c3.51-1.36,2.51-4.3,2.1-5.36L229.18,231.65z"/>
			<path class="st2" d="M232.55,219.99l3.81-2.52l1.42,2.14l0.09-0.05c-0.14-2.43,1.07-4.39,2.77-5.51c4.26-2.82,7.01-1,9.52,2.8
				l6.25,9.46l-4.01,2.65l-5.74-8.68c-1.67-2.53-3.18-3.33-5.07-2.08c-2.17,1.44-2.26,3.33-0.19,6.46l5.33,8.06l-4.01,2.65
				L232.55,219.99z"/>
			<path class="st2" d="M268.39,211.55l-0.05,0.05c0.66,2.19-0.06,4.17-1.63,5.81c-3.66,3.8-8.86,2.36-12.55-1.2
				c-3.57-3.44-5.06-8.51-1.5-12.21c1.43-1.48,3.51-2.3,5.57-1.82l0.05-0.05l-6.67-6.43l3.33-3.46l18.31,17.67l-3.17,3.29
				L268.39,211.55z M256.3,205.71c-2.18,2.27-0.86,5.05,1.29,7.13c2.08,2.01,5.13,3.21,7.19,1.06c2.18-2.27,0.76-5-1.42-7.11
				C261.21,204.71,258.46,203.47,256.3,205.71z"/>
			<path class="st2" d="M266.15,198.29c-3.86-2.69-3-6.89-0.95-10.23c1.82-2.97,4.72-6.12,8.48-3.81l8.16,5.01
				c1.43,0.88,2.94,1.61,3.81,1.62l-2.55,4.15c-0.58-0.15-1.16-0.36-1.7-0.64c0.63,2.17,0,4.36-1.14,6.21
				c-1.75,2.86-4.6,4.16-7.82,2.19c-7.1-4.44,2.88-12.13-0.74-14.11c-1.82-1.12-2.87-0.09-3.75,1.35c-0.97,1.59-0.91,2.98,0.7,4.16
				L266.15,198.29z M275.14,190.78c0.21,1.08-0.64,2.54-1.18,3.96c-0.54,1.42-0.76,2.87,0.82,3.84c1.58,0.97,2.73,0.05,3.54-1.28
				c1.96-3.2-0.61-4.94-1.58-5.53L275.14,190.78z"/>
			<path class="st2" d="M270.58,179.26l1.67-4.25l3.18,1.25l0.02-0.06c-1.82-1.7-2.48-4.4-1.6-6.63c0.14-0.35,0.33-0.64,0.55-0.91
				l4.38,1.72c-0.26,0.37-0.59,1.01-0.79,1.54c-1.3,3.31,0.72,5.37,3.77,6.58l7.73,3.04l-1.76,4.48L270.58,179.26z"/>
			<path class="st2" d="M293.24,158.82l-0.02,0.07c1.75,1.47,2.23,3.53,1.8,5.76c-1,5.19-6.14,6.82-11.18,5.85
				c-4.87-0.94-8.89-4.37-7.92-9.42c0.39-2.03,1.68-3.85,3.67-4.57l0.01-0.07l-9.1-1.75l0.91-4.72l24.99,4.8l-0.86,4.49
				L293.24,158.82z M279.91,160.54c-0.59,3.09,2.04,4.7,4.98,5.27c2.83,0.55,6.05-0.11,6.61-3.04c0.6-3.09-2.09-4.61-5.06-5.18
				C283.49,157.02,280.5,157.47,279.91,160.54z"/>
		</g>
		<circle class="st3" cx="191.73" cy="143.23" r="113.39"/>
		<g>
			<path class="st0" d="M179.15,194.94c0,0-0.01,0-0.01,0l-3.22,14.75c0,0,5.14,2.77,8.03,1.58l2.71-15.93c0,0-0.01,0-0.01,0
				C182.72,195.89,179.15,194.94,179.15,194.94z"/>
			<path class="st0" d="M194.89,77.27c0,0-11,18.83-14.95,24.3c-3.95,5.47-27.79,39.9-27.26,62.29
				c0.53,22.38,16.84,30.55,26.46,31.08l0.71-3.28c0,0,3.11-11.37,4.11-14c1-2.63,3.26-8.42,3.26-8.42s-9.15-3.35-17.75-27.99
				c0,0,9.33,17.57,18.93,23.01c0,0,2.9-10.69,4.08-22.01c0,0-7.97-5.53-10.14-20.56c0,0,6.52,13.41,10.14,14.22
				c0,0,1.09-30.07,1.9-33.6c0,0,3.08,24.46,2.54,33.6c0,0,5.53-2.26,10.87-12.77c0,0-1.09,11.59-10.96,18.93
				c0,0-0.27,7.16-1.18,12.23c-0.91,5.07-2.05,10.78-2.05,10.78s10.02-3.71,19.44-16.3c0,0-6.7,17.03-20.83,21.65
				c0,0-3.6,13.24-4.96,21.47l-0.59,3.44c0.22,0.01,25.99,0.96,38.71-20.02C238.15,154.24,228.41,125.36,194.89,77.27z"/>
		</g>
	</g>
</g>
</svg>
